<svg version="1.2" xmlns="http://www.w3.org/2000/svg" viewBox="0 0 1532 1417" width="1532" height="1417">
	<title>CARL-B</title>
	<style>
		.s0 { fill: #00321e } 
	</style>
	<g id="g189">
		<path id="Layer" fill-rule="evenodd" class="s0" d="m765.4 370.7l-8.4-1-8.4-1.1-8.5-2.1-8.4-3.1-6.3-3.2-7.4-4.2-7.3-4.2-5.3-6.3-5.3-6.4-5.2-6.3-4.2-6.3-5.3-8.4-3.1-8.4-2.1-7.4-1.1-9.5v-180l-1.1-10.5-2.1-10.5-2.1-12.6-4.2-9.5-4.2-10.5-5.2-8.5-6.4-9.4-7.3-8.5-8.4-6.3-8.5-7.3-9.4-5.3-10.6-4.2-9.4-4.2-10.6-2.1-11.5-2.1-11.6-1.1-9.5 1.1-9.4 1-9.5 2.1-8.4 3.2-9.5 4.2-8.4 4.2-6.3 5.3-8.5 5.2-14.7 9.5-13.7 10.5-15.8 7.4-15.7 7.4-15.8 7.3-16.9 5.3-16.8 4.2-15.8 3.2-17.9 2.1-16.8 1h-17.9l-17.9-1-16.8-3.2-17.9-3.2-16.9-5.2-16.8-6.3-14.7-4.2-15.8-3.2-13.7-3.2-14.7-1-15.8 1-13.7 1.1-15.8 3.2-13.7 4.2-13.7 6.3-12.6 5.2-13.7 8.5-11.5 9.4-11.6 9.5-10.5 10.5-9.5 12.7-8.4 13.7-7.4 13.6-6.3 14.8-4.2 13.7-3.2 15.7-2.1 14.8v13.7l1.1 14.7 2.1 14.7 3.1 14.8 5.3 13.7 7.4 13.6 6.3 13.7 8.4 11.6 8.4 11.6 10.5 11.6 11.6 10.5 13.7 10.5 13.7 12.6 10.5 12.7 11.6 14.7 10.5 13.7 8.4 14.7 7.4 15.8 6.3 15.8 6.3 15.8 4.2 16.8 4.2 16.9 3.2 16.8 2.1 17.9v16.9l-1.1 16.8-1 18.9-1.1 8.5-2.1 9.4 2.1 8.5 1.1 9.4 2.1 9.5 2.1 8.4 4.2 9.5 4.2 8.4 6.3 9.5 7.4 8.4 8.4 8.4 7.4 7.4 9.5 6.3 9.4 5.3 10.5 3.1 10.6 4.3 10.5 2.1 10.5 1 11.6 1.1 10.5-1.1 10.5-2.1 10.6-3.2 10.5-4.2 10.5-5.2 149.5-86.3 8.4-4.2 7.3-3.2 9.5-2.1 7.4-1.1 8.4-1h7.4l8.4 1 8.4 2.1 8.4 2.1 6.3 3.2 7.4 4.2 7.4 5.3 5.2 5.2 6.3 5.3 5.3 7.4 5.3 7.3 4.2 7.4 3.1 8.4 2.1 7.4 2.1 8.4v16.9l-1 7.3-2.1 8.4-2.1 8.5-3.2 6.3-4.2 7.4-5.2 7.3-5.3 6.3-5.3 5.3-7.3 5.3-7.4 5.2-149.4 85.3-9.5 6.3-9.5 7.4-8.4 7.3-6.3 8.5-6.3 9.4-5.3 9.5-5.3 10.5-2.1 9.5-2.1 10.5-1 11.6-1.1 10.5 1.1 11.6 2.1 10.5 2.1 11.6 4.2 10.5 5.3 9.5 5.2 8.4 6.3 7.4 6.4 7.4 7.3 5.2 7.4 6.4 7.4 5.2 8.4 3.2 8.4 4.2 15.8 7.3 15.8 8.5 14.7 8.4 13.7 10.5 14.7 10.5 12.6 11.6 11.6 11.6 10.5 13.7 11.6 13.7 9.5 14.7 8.4 14.7 7.4 15.8 6.3 15.8 6.3 16.9 4.2 17.9 3.2 17.8 3.1 14.8 4.2 14.7 5.3 13.7 6.3 12.6 8.4 13.7 9.5 10.5 8.4 11.6 11.6 10.5 10.5 8.5 13.7 7.3 11.6 7.4 14.7 6.3 14.7 5.3 14.8 3.1 15.8 3.2h30.5l16.8-3.2 13.7-3.1 14.7-5.3 13.7-6.3 13.7-7.4 11.6-7.3 12.6-9.5 9.5-9.5 10.5-10.5 8.4-11.6 7.4-13.7 7.3-12.6 5.3-13.7 4.2-14.7 3.2-14.8 3.1-17.8 5.3-17.9 5.3-16.9 6.3-15.8 7.3-15.8 8.5-14.7 9.4-14.7 10.6-13.7 10.5-13.7 12.6-11.6 12.6-11.6 13.7-10.5 13.7-10.5 15.8-8.4 14.7-8.5 16.9-7.3 8.4-4.2 8.4-4.2 7.4-5.3 7.3-5.3 7.4-5.2 6.3-7.4 5.3-7.4 5.2-8.4 5.3-9.5 4.2-11.5 3.2-10.6 2.1-10.5 1-11.6v-10.5l-2.1-11.6-2.1-10.5-3.2-9.5-4.2-10.5-6.3-9.5-5.2-9.4-7.4-8.5-8.4-7.3c-52.2-38.7-111.9-67-168.4-99l-6.3-5.2-7.4-5.3-6.3-5.3-4.2-6.3-6.3-7.3-3.2-7.4-4.2-6.3-2.1-8.5-2.1-8.4-1.1-7.3v-8.5l1.1-8.4 1.1-8.4 2.1-7.4 3.1-8.4 4.2-7.4 5.3-7.3 6.3-7.4 5.3-5.3 6.3-5.2 6.3-5.3 7.4-4.2 8.4-3.2 6.3-2.1 9.5-2.1 7.3-1h8.4l8.5 1 8.4 1.1 7.4 2.1 8.4 3.2 7.3 4.2 150.5 86.3 9.5 5.2 10.5 4.2 10.5 3.2 11.6 2.1 10.5 1.1 11.6-1.1 10.5-1 10.6-2.1 10.5-4.3 9.5-4.2 10.5-4.2 9.5-6.3 8.4-7.4 7.3-8.4 7.4-8.4 6.3-9.5 4.2-8.4 4.2-9.5 3.2-8.4 2.1-9.5 1.1-9.4v-17.9l-1.1-8.5-2.1-18.9-1-16.8v-16.9l2.1-17.9 2.1-16.8 4.2-16.9 4.2-16.8 6.3-15.8 7.4-15.8 6.3-15.8 9.4-14.7 10.6-13.7 10.5-14.7 10.5-12.7 13.7-12.6 13.7-10.5 11.6-10.5 10.5-10.6 8.4-12.6 9.5-11.6 7.3-13.7 5.3-13.6 5.3-13.7 4.2-14.8 2.1-14.7 1-14.7v-13.7l-2.1-14.8-3.1-15.7-4.2-13.7-6.4-14.8-7.3-13.6-8.4-13.7-9.5-12.7-10.5-10.5-12.7-9.5-11.5-9.4-11.6-8.5-13.7-5.2-14.7-6.3-13.7-4.2-13.7-3.2-15.8-1.1-15.8-1-13.6 1-14.8 3.2-15.8 3.2-13.6 5.2-16.9 5.3-17.9 5.2-16.8 3.2-16.9 3.2-17.8 1h-17.9l-17.9-1-15.8-2.1-16.8-3.2-17.9-4.2-15.8-5.3-15.8-7.3-15.8-7.4-15.8-7.4-15.8-10.5-14.7-10.5-6.3-4.2-8.4-5.3-8.5-4.2-7.3-4.2-9.5-3.2-9.5-2.1-10.5-1-9.5-1.1-10.5 1.1-11.6 2.1-11.5 2.1-10.6 4.2-9.4 5.2-8.4 4.3-8.5 7.3-8.4 6.3-8.4 8.5-5.3 9.4-6.3 8.5-4.2 10.5-4.2 9.5-3.2 11.5-2.1 11.6v183.2l-1 8.4-1.1 8.4-2.1 8.4-3.1 7.4-4.2 7.4-4.2 7.3-4.3 5.3-6.3 7.4-6.3 5.2-5.2 5.3-7.4 4.2-7.4 3.2-7.3 3.1-8.5 2.1-9.4 1.1z"/>
	</g>
</svg>